<svg xmlns="http://www.w3.org/2000/svg" id="Camada_2" viewBox="0 0 1192.85 511.89"><defs><style>.cls-1{fill:#28a811;}.cls-1,.cls-2,.cls-3,.cls-4,.cls-5,.cls-6{stroke-width:0px;}.cls-2{fill:#8cd867;}.cls-3{fill:#f8fafc;}.cls-4{fill:#7bcdff;}.cls-5{fill:#004385;}.cls-6{fill:#008dd5;}</style></defs><g id="Camada_1-2"><path class="cls-6" d="m234.19,283.33L29.98,407.25l24.05,23.4h0l12.33,12.1h0c13.4,12.88,34.96,12.74,48.17-.33l119.65-159.08Z"></path><path class="cls-5" d="m234.19,283.33l-54.58,228.55h52.06c18.82,0,34.07-14.88,34.07-33.24l-31.55-195.31Z"></path><path class="cls-4" d="m234.19,283.33L0,230.08v50.72h0c0,18.36,15.25,33.24,34.07,33.24l200.12-30.71Z"></path><path class="cls-2" d="m234.19,283.33L107.18,83.9l-24.05,23.67h0l-12.4,12.1h0c-13.07,13.15-12.91,34.1.34,47.07l163.12,116.6Z"></path><path class="cls-1" d="m234.12,228.49L288.7,0h-51.92c-18.82,0-34.07,14.88-34.07,33.24l31.41,195.25Z"></path><path class="cls-3" d="m1167.83,229.82c-36.13-26.1-85.5-26.1-121.63,0-26.64,18.69-32.71,54.91-13.56,80.91,3.76,5.1,8.33,9.56,13.56,13.23,36.16,26.16,85.6,26.16,121.76,0,26.61-18.42,32.86-54.4,13.98-80.36-3.84-5.28-8.57-9.89-13.98-13.64m-10.08,86.42c-29.95,22.69-71.85,22.69-101.8,0-22.47-16.24-27.19-47.17-10.54-69.09,2.97-3.92,6.53-7.38,10.54-10.28,29.95-22.69,71.85-22.69,101.8,0,22.47,16.36,27.08,47.4,10.31,69.31-2.92,3.82-6.4,7.21-10.31,10.06"></path><path class="cls-3" d="m1158.77,198.44s-.82-7.11-19.28-12.37c-13.63-3.86-42.93-8.97-68.14,1.26-14.99,6.12-16.49,11.1-16.49,11.1,17-4.81,34.63-7.18,52.33-7.05,17.39.18,34.68,2.55,51.44,7.05"></path><path class="cls-3" d="m967.57,224.7c-29.1-19.51-67.52-19.51-96.62,0-12.43,8.78-19.68,22.92-19.42,37.89v78.05h13.63v-76.45c-.3-12.25,5.33-23.92,15.19-31.51,22.83-16.57,54.1-16.57,76.93,0,10.09,7.54,15.91,19.31,15.67,31.71v76.45h13.63v-78.11c.4-14.94-6.69-29.14-19.01-38.03"></path><path class="cls-3" d="m798.04,170.72c-2.18-1.58-4.85-2.38-7.56-2.26-2.73-.11-5.42.69-7.63,2.26-3.29,2.39-3.98,6.93-1.53,10.14.43.57.95,1.07,1.53,1.5,2.2,1.59,4.89,2.42,7.63,2.33,2.72.1,5.39-.72,7.56-2.33,3.29-2.32,4.03-6.81,1.65-10.03-.46-.62-1.01-1.16-1.65-1.61"></path><rect class="cls-3" x="783.87" y="212.86" width="13.56" height="127.84"></rect><path class="cls-3" d="m705.03,229.02c-34.7-25.25-82.29-25.25-116.99,0-26.98,20.57-31.76,58.59-10.67,84.92,3.11,3.88,6.69,7.38,10.67,10.41,16.58,12.81,37.26,19.5,58.39,18.88,10.04.39,20.06-1.03,29.57-4.19,8.19-3.06,16.02-6.96,23.37-11.63v-12.23c-7.27,5.84-15.46,10.48-24.26,13.76-9.17,3.14-18.83,4.67-28.55,4.52-17.4.24-34.31-5.58-47.7-16.42-22.8-16.72-27.4-48.31-10.27-70.56,2.92-3.79,6.38-7.17,10.27-10.02,13.38-10.86,30.3-16.69,47.7-16.42,18.03-.64,35.64,5.36,49.33,16.82,12.25,9.8,19.37,24.43,19.42,39.89v63.82h13.63v-63.82c.26-18.7-8.59-36.41-23.85-47.73"></path><path class="cls-3" d="m515.27,222.17c-11.88-8.32-26.26-12.56-40.88-12.03-11.29-.38-22.51,1.9-32.71,6.65-8.15,4.05-14.68,10.65-18.53,18.75-3.41-8.14-9.73-14.8-17.78-18.75-10.11-4.72-21.23-7-32.43-6.65-14.63-.49-29.02,3.79-40.88,12.17-10.83,7.9-16.95,20.52-16.35,33.7v84.63h13.63v-84.49c-.49-10.43,4.4-20.41,13.01-26.59,18.61-12.49,43.19-12.49,61.8,0,8.56,6.22,13.38,16.19,12.88,26.59v84.49h13.63v-84.49c-.51-10.39,4.29-20.35,12.81-26.59,9.12-6.36,20.13-9.63,31.34-9.31,11.12-.32,22.04,3.01,31,9.44,8.51,6.25,13.31,16.21,12.81,26.59v84.36h13.63v-84.63c.68-13.2-5.4-25.88-16.22-33.84"></path></g></svg>